<svg id="Capa_1" enable-background="new 0 0 512 512" height="512" viewBox="0 0 512 512" width="512" xmlns="http://www.w3.org/2000/svg" xmlns:xlink="http://www.w3.org/1999/xlink"><linearGradient id="SVGID_1_" gradientUnits="userSpaceOnUse" x1="256" x2="256" y1="512" y2="0"><stop offset="0" stop-color="#c3ffe8"/><stop offset=".9973" stop-color="#f0fff4"/></linearGradient><linearGradient id="SVGID_2_" gradientUnits="userSpaceOnUse" x1="256" x2="256" y1="105" y2="407"><stop offset="0" stop-color="#00b59c"/><stop offset="1" stop-color="#9cffac"/></linearGradient><g><g><circle cx="256" cy="256" fill="url(#SVGID_1_)" r="256"/></g><g><g><path d="m256 176.059c-14.694 0-26.647 11.953-26.647 26.647s11.953 26.647 26.647 26.647 26.647-11.953 26.647-26.647-11.953-26.647-26.647-26.647zm0-71.059c-53.875 0-97.706 43.831-97.706 97.706 0 73.063 86.785 195.403 90.48 200.573 1.666 2.333 4.355 3.721 7.226 3.721s5.56-1.388 7.226-3.721c3.695-5.17 90.48-127.51 90.48-200.573 0-53.875-43.831-97.706-97.706-97.706zm0 142.118c-24.487 0-44.412-19.925-44.412-44.412s19.924-44.412 44.412-44.412 44.412 19.925 44.412 44.412-19.925 44.412-44.412 44.412z" fill="url(#SVGID_2_)"/></g></g></g></svg>